<?xml version="1.0" encoding="utf-8"?>
<!-- Generator: Adobe Illustrator 18.0.0, SVG Export Plug-In . SVG Version: 6.00 Build 0)  -->
<!DOCTYPE svg PUBLIC "-//W3C//DTD SVG 1.1//EN" "http://www.w3.org/Graphics/SVG/1.1/DTD/svg11.dtd">
<svg version="1.1" xmlns="http://www.w3.org/2000/svg" xmlns:xlink="http://www.w3.org/1999/xlink" x="0px" y="0px"
	 viewBox="0 0 30 30" enable-background="new 0 0 30 30" xml:space="preserve">
<g id="Background_xA0_Image_1_">
</g>
<g id="Row_1_1_">
	<g>
		<path d="M3.4,8.6c0,2.2,0.7,3.9,2.2,4.8c1.2,0.8,2.6,0.9,3.3,0.9c0.2,0,0.3,0,0.4,0c0,0-0.2,1.5,0.9,3h-0.1
			c-1.9,0-8.2,0.4-8.2,5.6c0,5.3,5.8,5.5,7,5.5c0.1,0,0.1,0,0.1,0c0,0,0.1,0,0.2,0c0.7,0,2.7-0.1,4.5-1c2.3-1.1,3.5-3.1,3.5-5.8
			c0-2.6-1.8-4.2-3.1-5.4c-0.8-0.7-1.5-1.3-1.5-1.9c0-0.6,0.5-1.1,1.1-1.6c1-0.9,2-2.2,2-4.7c0-2.2-0.3-3.7-2-4.6
			C14,3.3,14.7,3.2,15,3.2c0.9-0.1,2.3-0.3,2.3-1V2h-6.9C10.3,2,3.4,2.3,3.4,8.6z M14.6,22.1c0.1,2.1-1.7,3.7-4.4,3.9
			c-2.8,0.2-5-1-5.1-3.1c-0.1-1,0.4-2,1.3-2.8c0.9-0.8,2.1-1.3,3.4-1.4c0.2,0,0.3,0,0.5,0C12.7,18.6,14.4,20.1,14.6,22.1z M12.8,7.1
			c0.7,2.4-0.3,4.9-2,5.3c-0.2,0.1-0.4,0.1-0.6,0.1c-1.5,0-3-1.5-3.5-3.6C6.4,7.8,6.4,6.8,6.8,5.8c0.3-1,1-1.6,1.7-1.8
			c0.2-0.1,0.4-0.1,0.6-0.1C10.9,3.9,12,4.6,12.8,7.1z M24.4,12.2V7.7h-3v4.5h-4.5v3h4.5v4.5h3v-4.5h4.5v-3H24.4z"/>
	</g>
</g>
</svg>
