<?xml version="1.0" encoding="utf-8"?>
<!-- Generator: Adobe Illustrator 18.0.0, SVG Export Plug-In . SVG Version: 6.00 Build 0)  -->
<!DOCTYPE svg PUBLIC "-//W3C//DTD SVG 1.1//EN" "http://www.w3.org/Graphics/SVG/1.1/DTD/svg11.dtd">
<svg version="1.1" xmlns="http://www.w3.org/2000/svg" xmlns:xlink="http://www.w3.org/1999/xlink" x="0px" y="0px"
	 viewBox="0 0 30 30" enable-background="new 0 0 30 30" xml:space="preserve">
<g id="Background_xA0_Image_1_">
</g>
<g id="Row_1_1_">
	<path d="M21.9,11.4c0,0-2.2,7-2.4,7.5c-0.1-0.6-1.7-13.1-1.7-13.1c-3.8,0-5.8,2.7-6.9,5.5c0,0-2.7,7-2.9,7.6c0-0.5-0.4-7.5-0.4-7.5
		c-0.2-3.5-3.4-5.6-6-5.6l3.1,18.9c4,0,6.1-2.7,7.2-5.5c0,0,2.4-6.2,2.5-6.4c0,0.3,1.7,12,1.7,12c4,0,6.1-2.5,7.3-5.3L29,5.8
		C25.1,5.8,23,8.5,21.9,11.4z"/>
</g>
</svg>
