<?xml version="1.0" encoding="utf-8"?>
<!-- Generator: Adobe Illustrator 18.0.0, SVG Export Plug-In . SVG Version: 6.00 Build 0)  -->
<!DOCTYPE svg PUBLIC "-//W3C//DTD SVG 1.1//EN" "http://www.w3.org/Graphics/SVG/1.1/DTD/svg11.dtd">
<svg version="1.1" xmlns="http://www.w3.org/2000/svg" xmlns:xlink="http://www.w3.org/1999/xlink" x="0px" y="0px"
	 viewBox="0 0 30 30" enable-background="new 0 0 30 30" xml:space="preserve">
<g id="Background_xA0_Image_1_">
</g>
<g id="Row_1_1_">
	<path fill="#FFFFFF" d="M26.1,5.5L24.6,4c-1.3-1.3-3-1.9-4.7-1.9S16.5,2.7,15.3,4l-4.7,4.7c-2.6,2.6-2.6,6.8,0,9.3l1.3,1.3l2.3-2.3
		l-1.3-1.3c-0.6-0.6-1-1.4-1-2.3s0.3-1.7,1-2.3l4.7-4.7c0.6-0.6,1.4-1,2.3-1s1.7,0.3,2.3,1l1.5,1.5c1.3,1.3,1.3,3.4,0,4.7L23,13.2
		c0.8,1,1.2,2.2,1.2,3.4l1.9-1.9C28.6,12.2,28.6,8,26.1,5.5z M18.2,10.6l-2.3,2.3l1.3,1.3c0.6,0.6,1,1.4,1,2.3c0,0.9-0.3,1.7-1,2.3
		l-4.7,4.7c-0.6,0.6-1.4,1-2.3,1c-0.9,0-1.7-0.3-2.3-1l-1.5-1.5c-0.6-0.6-1-1.4-1-2.3c0-0.9,0.3-1.7,1-2.3l0.8-0.8
		c-0.8-1-1.2-2.2-1.2-3.4L4,15.2c-2.6,2.6-2.6,6.8,0,9.3L5.5,26c1.3,1.3,3,1.9,4.7,1.9s3.4-0.6,4.7-1.9l4.7-4.7
		c2.6-2.6,2.6-6.8,0-9.3L18.2,10.6z"/>
</g>
</svg>
