<?xml version="1.0" encoding="utf-8"?>
<!-- Generator: Adobe Illustrator 18.0.0, SVG Export Plug-In . SVG Version: 6.00 Build 0)  -->
<!DOCTYPE svg PUBLIC "-//W3C//DTD SVG 1.1//EN" "http://www.w3.org/Graphics/SVG/1.1/DTD/svg11.dtd">
<svg version="1.1" xmlns="http://www.w3.org/2000/svg" xmlns:xlink="http://www.w3.org/1999/xlink" x="0px" y="0px"
	 viewBox="0 0 30 30" enable-background="new 0 0 30 30" xml:space="preserve">
<g id="Background_xA0_Image_1_">
</g>
<g id="Row_1_1_">
	<g>
		<path d="M26.2,9.6c0,0.2,0,0.5,0,0.7c0,7.5-5.7,16.1-16.1,16.1c-3.2,0-6.2-0.9-8.7-2.5C1.8,23.9,2.3,24,2.8,24
			c2.7,0,5.1-0.9,7-2.4c-2.5,0-4.6-1.7-5.3-3.9c0.3,0.1,0.7,0.1,1.1,0.1c0.5,0,1-0.1,1.5-0.2C4.5,17,2.5,14.7,2.5,12c0,0,0,0,0-0.1
			c0.8,0.4,1.6,0.7,2.6,0.7c-1.5-1-2.5-2.7-2.5-4.7c0-1,0.3-2,0.8-2.8c2.8,3.4,7,5.7,11.7,5.9c-0.1-0.4-0.1-0.8-0.1-1.3
			c0-3.1,2.5-5.7,5.7-5.7c1.6,0,3.1,0.7,4.1,1.8c1.3-0.3,2.5-0.7,3.6-1.4c-0.4,1.3-1.3,2.4-2.5,3.1C26.9,7.4,28,7.1,29,6.7
			C28.2,7.8,27.3,8.8,26.2,9.6z"/>
	</g>
</g>
</svg>
