<?xml version="1.0" encoding="utf-8"?>
<!-- Generator: Adobe Illustrator 18.0.0, SVG Export Plug-In . SVG Version: 6.00 Build 0)  -->
<!DOCTYPE svg PUBLIC "-//W3C//DTD SVG 1.1//EN" "http://www.w3.org/Graphics/SVG/1.1/DTD/svg11.dtd">
<svg version="1.1" xmlns="http://www.w3.org/2000/svg" xmlns:xlink="http://www.w3.org/1999/xlink" x="0px" y="0px"
	 viewBox="0 0 30 30" enable-background="new 0 0 30 30" xml:space="preserve">
<g id="Background_xA0_Image_1_">
</g>
<g id="Row_1_1_">
	<path fill-rule="evenodd" clip-rule="evenodd" d="M15,1C7.4,1,1.1,7.2,1.1,14.9c0,6.1,4,11.4,9.5,13.2c0.7,0.1,0.9-0.3,0.9-0.7
		c0-0.3,0-1.2,0-2.4c-3.9,0.8-4.7-1.9-4.7-1.9c-0.6-1.6-1.5-2-1.5-2c-1.3-0.9,0.1-0.8,0.1-0.8c1.4,0.1,2.1,1.4,2.1,1.4
		c1.2,2.1,3.3,1.5,4,1.2c0.1-0.9,0.5-1.5,0.9-1.9c-3.1-0.4-6.3-1.5-6.3-6.9c0-1.5,0.5-2.8,1.4-3.7C7.5,10.1,7,8.7,7.7,6.8
		c0,0,1.2-0.4,3.8,1.4c1.1-0.3,2.3-0.5,3.5-0.5c1.2,0,2.4,0.2,3.5,0.5c2.7-1.8,3.8-1.4,3.8-1.4c0.8,1.9,0.3,3.3,0.1,3.7
		c0.9,1,1.4,2.2,1.4,3.7c0,5.3-3.3,6.5-6.4,6.9c0.5,0.4,0.9,1.3,0.9,2.6c0,1.9,0,3.4,0,3.8c0,0.4,0.3,0.8,1,0.7
		C25,26.3,29,21.1,29,14.9C29,7.2,22.7,1,15,1z"/>
</g>
</svg>
