<?xml version="1.0" encoding="utf-8"?>
<!-- Generator: Adobe Illustrator 18.0.0, SVG Export Plug-In . SVG Version: 6.00 Build 0)  -->
<!DOCTYPE svg PUBLIC "-//W3C//DTD SVG 1.1//EN" "http://www.w3.org/Graphics/SVG/1.1/DTD/svg11.dtd">
<svg version="1.1" xmlns="http://www.w3.org/2000/svg" xmlns:xlink="http://www.w3.org/1999/xlink" x="0px" y="0px"
	 viewBox="0 0 30 30" enable-background="new 0 0 30 30" xml:space="preserve">
<g id="Background_xA0_Image_1_">
</g>
<g id="Row_1_1_">
	<path d="M25.9,8.7C25.1,3.1,19.5,0.3,13.6,1C8.9,1.5,4.2,5.3,4,10.7c-0.1,3.3,0.8,5.8,4,6.5c1.4-2.4-0.4-2.9-0.7-4.7
		c-1.2-7.2,8.3-12,13.2-7c3.4,3.5,1.2,14.1-4.3,13c-5.3-1.1,2.6-9.5-1.6-11.2c-3.4-1.4-5.2,4.1-3.6,6.9c-1,4.7-3,9.1-2.2,15
		c2.7-2,3.6-5.7,4.3-9.6c1.3,0.8,2.1,1.7,3.8,1.8C23.2,21.9,26.7,15,25.9,8.7z"/>
</g>
</svg>
